<svg width="51" height="50" viewBox="0 0 51 50" fill="none" xmlns="http://www.w3.org/2000/svg">
    <path d="M49.9293 8.69431L42.1614 0.921812C40.9352 -0.307271 38.7916 -0.307271 37.5611 0.921812L5.53076 32.9691C5.40029 33.0997 5.30468 33.2628 5.25468 33.439L0.921779 48.6143C0.813086 48.995 0.919631 49.4039 1.19786 49.6824C1.40656 49.8869 1.68264 50 1.9675 50C2.06751 50 2.16751 49.9869 2.26751 49.9587L17.4315 45.6232C17.6097 45.5731 17.7707 45.4796 17.9011 45.3469L49.9293 13.2974C51.1968 12.0292 51.1968 9.96257 49.9293 8.69431ZM48.3945 11.7594L16.5641 43.6067L3.5524 47.3265L7.27006 34.307L39.1003 2.45978C39.5069 2.05083 40.2178 2.05298 40.6265 2.45978L48.3945 10.2324C48.814 10.6522 48.814 11.3396 48.3945 11.7594Z"
          fill="#000000"/>
    <path d="M47.2813 14.4047L36.4546 3.5714C36.0306 3.14722 35.3414 3.14722 34.9175 3.5714C34.4936 3.99559 34.4936 4.68518 34.9175 5.10937L45.7443 15.9427C45.9574 16.1536 46.2356 16.2602 46.5139 16.2602C46.7923 16.2602 47.0705 16.1536 47.2813 15.9427C47.7053 15.5185 47.7053 14.8289 47.2813 14.4047Z"
          fill="#000000"/>
    <path d="M17.9316 43.7719L7.10482 32.9386C6.68088 32.5145 5.99171 32.5145 5.56778 32.9386C5.14384 33.3628 5.14384 34.0524 5.56778 34.4766L16.3946 45.31C16.6077 45.521 16.8859 45.6276 17.1642 45.6276C17.4425 45.6276 17.7208 45.5231 17.9316 45.31C18.3555 44.8857 18.3555 44.1961 17.9316 43.7719Z"
          fill="#000000"/>
</svg>
