<svg width="39" height="40" viewBox="0 0 39 40" fill="none" xmlns="http://www.w3.org/2000/svg">
    <path d="M37.4766 17.7778H1.52344C0.682043 17.7778 0 18.7727 0 20C0 21.2273 0.682043 22.2222 1.52344 22.2222H37.4766C38.318 22.2222 39 21.2273 39 20C39 18.7727 38.318 17.7778 37.4766 17.7778Z"
          fill="#000000"/>
    <path d="M37.4766 0H1.52344C0.682043 0 0 0.994889 0 2.22222C0 3.44956 0.682043 4.44444 1.52344 4.44444H37.4766C38.318 4.44444 39 3.44956 39 2.22222C39 0.994889 38.318 0 37.4766 0Z"
          fill="#000000"/>
    <path d="M37.4766 35.5556H1.52344C0.682043 35.5556 0 36.5504 0 37.7778C0 39.0051 0.682043 40 1.52344 40H37.4766C38.318 40 39 39.0051 39 37.7778C39 36.5504 38.318 35.5556 37.4766 35.5556Z"
          fill="#000000"/>
</svg>
