<svg width="54" height="60" viewBox="0 0 54 60" fill="none" xmlns="http://www.w3.org/2000/svg">
<path d="M40.125 0C39.8926 0 17.625 0 17.625 0C13.6575 0 10.125 3.6394 10.125 7.50004L7.95752 7.55066C3.99188 7.55066 0.75 11.1394 0.75 15V52.5C0.75 56.3607 4.28252 60 8.25004 60H36.3751C40.3425 60 43.875 56.3607 43.875 52.5H45.75C49.7175 52.5 53.25 48.8607 53.25 45.0001V15.045L40.125 0ZM36.3751 56.2501H8.25004C6.28129 56.2501 4.50006 54.4108 4.50006 52.5V15C4.50006 13.0894 6.1032 11.3119 8.07195 11.3119L10.125 11.25V45.0001C10.125 48.8607 13.6575 52.5 17.625 52.5H40.125C40.125 54.4107 38.3437 56.2501 36.3751 56.2501ZM49.5001 45.0001C49.5001 46.9106 47.7188 48.75 45.75 48.75H17.625C15.6562 48.75 13.875 46.9107 13.875 45.0001V7.50004C13.875 5.58945 15.6562 3.75006 17.625 3.75006H36.3751C36.3449 8.06819 36.3751 11.2969 36.3751 11.2969C36.3751 15.1932 39.8812 18.7501 43.875 18.7501C43.875 18.7501 45.8663 18.7501 49.5001 18.7501V45.0001ZM43.875 15C41.8782 15 40.125 11.3719 40.125 9.42564C40.125 9.42564 40.125 7.45312 40.125 3.80814V3.80437L49.5001 15H43.875ZM40.125 26.2838H23.25C22.2151 26.2838 21.3751 27.1219 21.3751 28.1569C21.3751 29.1919 22.2151 30.03 23.25 30.03H40.125C41.16 30.03 42 29.1918 42 28.1569C42 27.1219 41.16 26.2838 40.125 26.2838ZM40.125 35.6494H23.25C22.2151 35.6494 21.3751 36.4875 21.3751 37.5224C21.3751 38.5575 22.2151 39.3956 23.25 39.3956H40.125C41.16 39.3956 42 38.5575 42 37.5224C42 36.4875 41.16 35.6494 40.125 35.6494Z" fill="#000000"/>
</svg>