<svg width="71" height="78" viewBox="0 0 71 78" fill="none" xmlns="http://www.w3.org/2000/svg">
    <path d="M24.9462 38.4999C26.1821 40.2735 25.8127 38.7956 25.8127 74.1479C25.8127 77.3115 29.4525 79.1221 32.0178 77.2298C42.9799 69.0342 45.17 68.3244 45.17 64.491C45.17 38.729 44.8672 40.1778 46.0365 38.4999L63.8376 14.4725H7.14523L24.9462 38.4999Z"
          fill="#000000"/>
    <path d="M70.5619 1.95914C69.9259 0.751055 68.6784 0 67.3051 0H3.67778C0.711928 0 -1.03317 3.31759 0.668142 5.72813C0.682123 5.75129 0.475028 5.47021 3.7592 9.90235H67.2235C70.0222 6.12529 71.893 4.49338 70.5619 1.95914Z"
          fill="#000000"/>
</svg>
