<svg width="72" height="72" viewBox="0 0 72 72" fill="none" xmlns="http://www.w3.org/2000/svg">
    <path d="M69.8172 29.7843H63.2062C62.5805 27.1958 61.5972 24.747 60.3091 22.4948L65.4977 17.3026C66.35 16.4496 66.35 15.0667 65.4977 14.2136L58.6975 7.40881C57.8451 6.55579 56.4631 6.55579 55.6106 7.40881L50.563 12.4599C48.3078 11.0811 45.8423 10.0137 43.2262 9.31442V2.18418C43.2262 0.977904 42.249 0 41.0435 0H31.4265C30.2211 0 29.2438 0.977904 29.2438 2.18418V9.18392C26.542 9.85133 23.9952 10.9108 21.6661 12.299L17.1696 7.79947C16.3171 6.94644 14.9352 6.94644 14.0827 7.79947L7.2825 14.6043C6.43005 15.4573 6.43005 16.8402 7.2825 17.6933L11.8091 22.2229C10.443 24.5501 9.40183 27.0907 8.75061 29.7845H2.1827C0.97724 29.7843 0 30.7622 0 31.9686V41.5922C0 42.7984 0.97724 43.7763 2.1827 43.7763H8.94693C9.64621 46.3475 10.7006 48.7722 12.0564 50.9929L7.18512 55.8675C6.33267 56.7206 6.33267 58.1035 7.18512 58.9565L13.9853 65.7613C14.8378 66.6144 16.2197 66.6144 17.0722 65.7613L22.0844 60.7457C24.2164 61.9666 26.5239 62.9155 28.96 63.5445V69.8158C28.96 71.0221 29.9372 72 31.1427 72H40.7597C41.9651 72 42.9424 71.0221 42.9424 69.8158V63.5583C45.5035 62.9027 47.9223 61.8927 50.1459 60.5856L55.3668 65.8101C56.2193 66.6632 57.6012 66.6632 58.4537 65.8101L65.2539 59.0053C66.1063 58.1523 66.1063 56.7694 65.2539 55.9163L60.0629 50.7218C61.3404 48.5752 62.3393 46.2436 63.0102 43.7763H69.8173C71.0228 43.7763 72 42.7984 72 41.5922V31.9686C71.9999 30.7622 71.0226 29.7843 69.8172 29.7843ZM16.8805 29.6828C16.2172 28.6364 16.5272 27.2501 17.5729 26.5865C18.552 25.9651 19.8281 26.1975 20.5313 27.0878C23.6667 21.7106 29.4993 18.2236 35.9295 18.2236C43.6956 18.2236 50.5099 23.1906 52.8861 30.5832C53.2652 31.7628 52.6171 33.0264 51.4382 33.4058C50.259 33.7855 48.9966 33.1365 48.6175 31.957C46.8398 26.4265 41.741 22.7106 35.9295 22.7106C31.4077 22.7106 27.2828 25.0153 24.8551 28.6311C25.8742 28.6111 26.8103 29.2917 27.0707 30.3232C27.374 31.5246 26.6467 32.7445 25.4462 33.0478L21.4751 34.0517C20.6009 34.2757 19.5503 33.9245 19.0327 33.0782L16.8805 29.6828ZM54.4268 45.4134C53.4479 46.0348 52.1716 45.8025 51.4684 44.912C48.3331 50.2891 42.5004 53.7763 36.0702 53.7763C28.3043 53.7763 21.49 48.8094 19.1137 41.4168C18.7345 40.2372 19.3826 38.9734 20.5614 38.594C21.74 38.2142 23.0031 38.8633 23.3822 40.0428C25.1601 45.5732 30.2589 49.2891 36.0702 49.2891C40.5914 49.2891 44.7161 46.985 47.1439 43.3699C47.1297 43.3702 47.1154 43.3712 47.1012 43.3712C46.0986 43.3712 45.1858 42.6937 44.929 41.6767C44.6258 40.4753 45.353 39.2554 46.5535 38.9521L50.5246 37.9483C51.3955 37.7293 52.4804 38.0763 52.9884 38.9553L55.1192 42.3171C55.7825 43.3635 55.4725 44.7496 54.4268 45.4134Z"
          fill="#000000"/>
</svg>
