<?xml version="1.0" encoding="UTF-8" standalone="no"?>
<svg
   xmlns:dc="http://purl.org/dc/elements/1.1/"
   xmlns:cc="http://creativecommons.org/ns#"
   xmlns:rdf="http://www.w3.org/1999/02/22-rdf-syntax-ns#"
   xmlns:svg="http://www.w3.org/2000/svg"
   xmlns="http://www.w3.org/2000/svg"
   xmlns:sodipodi="http://sodipodi.sourceforge.net/DTD/sodipodi-0.dtd"
   xmlns:inkscape="http://www.inkscape.org/namespaces/inkscape"
   width="210mm"
   height="210mm"
   viewBox="0 0 210 210"
   version="1.1"
   id="svg8"
   inkscape:version="1.0.1 (3bc2e813f5, 2020-09-07)"
   sodipodi:docname="рисунок-1.svg">
  <defs
     id="defs2" />
  <sodipodi:namedview
     id="base"
     pagecolor="#ffffff"
     borderopacity="1.0"
     inkscape:pageopacity="0.0"
     inkscape:pageshadow="2"
     inkscape:zoom="0.175"
     inkscape:cx="-1322.1166"
     inkscape:cy="201.59524"
     inkscape:document-units="mm"
     inkscape:current-layer="layer1"
     inkscape:document-rotation="0"
     showgrid="false"
     inkscape:window-width="1609"
     inkscape:window-height="967"
     inkscape:window-x="259"
     inkscape:window-y="83"
     inkscape:window-maximized="0" />
  <metadata
     id="metadata5">
    <rdf:RDF>
      <cc:Work
         rdf:about="">
        <dc:format>image/svg+xml</dc:format>
        <dc:type
           rdf:resource="http://purl.org/dc/dcmitype/StillImage" />
        <dc:title></dc:title>
      </cc:Work>
    </rdf:RDF>
  </metadata>
  <g
     inkscape:label="Слой 1"
     inkscape:groupmode="layer"
     id="layer1">
    <path
       style="fill:#000000;stroke-width:0.214962"
       d="m 68.283124,207.46797 c -29.83142,-0.89478 -52.84738,-4.39877 -63.9335604,-9.73336 -3.64918,-1.75595 -3.40114,-1.41841 -3.59195,-4.88827 -0.67005,-12.18514 2.51691,-27.52285 8.44602,-40.64776 2.9555704,-6.54258 7.3187304,-13.18504 10.8661104,-16.54253 l 1.05285,-0.99649 10.56483,-0.0796 c 9.30739,-0.0701 10.71967,-0.12417 11.86575,-0.4543 1.96845,-0.56701 2.40465,-0.85729 3.45457,-2.29894 1.84566,-2.53426 3.31869,-6.127 4.26618,-10.40524 l 0.46043,-2.079 -1.40133,-1.74762 c -2.63259,-3.28316 -4.94764,-7.37982 -6.34246,-11.22344 -0.4821,-1.32851 -0.73541,-1.72726 -1.32127,-2.07986 -0.96821,-0.58272 -2.54098,-2.31049 -3.33485,-3.6635 -1.5731,-2.681076 -2.41682,-6.621199 -2.41819,-11.292844 l -8.8e-4,-2.982203 1.29479,-0.815986 c 1.12376,-0.708207 1.28215,-0.888687 1.19915,-1.36642 -0.58093,-3.34382 -0.85756,-10.302923 -0.5489,-13.80853 0.72938,-8.283744 3.01647,-13.846445 7.60665,-18.501031 4.61942,-4.684239 11.46157,-7.743885 20.61799,-9.219875 3.37572,-0.544156 12.03923,-0.542981 15.46604,0.0021 4.94878,0.787172 8.70717,1.886625 12.50991,3.659571 3.24891,1.514728 5.678426,3.10722 7.987016,5.235288 3.97616,3.665248 5.90704,7.059281 7.08857,12.460064 0.83971,3.838294 0.86698,11.153247 0.0666,17.86377 -0.42586,3.5705 -0.50212,3.249854 1.00457,4.223929 0.52502,0.339422 0.53215,0.385834 0.49061,3.196028 -0.0714,4.831745 -0.99232,8.946869 -2.57818,11.520739 -0.92185,1.49617 -1.76625,2.40161 -3.26112,3.49686 -0.97558,0.71477 -1.15343,0.97808 -1.7055,2.52487 -1.38642,3.88455 -4.466186,9.04149 -7.211786,12.07584 -0.66654,0.73663 -1.21162,1.40484 -1.2113,1.48491 0.002,0.45996 1.36496,5.25509 1.85044,6.50945 0.78689,2.03316 2.1785,4.52014 3.011966,5.38278 0.97578,1.00993 2.68393,2.04229 4.31064,2.60522 1.22575,0.42418 1.8316,0.48389 5.09434,0.50202 2.03672,0.0113 6.72936,0.0387 10.42809,0.0609 l 6.72497,0.0403 1.9883,1.97339 c 11.02682,10.94413 17.38565,29.85608 18.56092,55.20247 l 0.14787,3.1889 -0.77978,0.66673 c -4.37474,3.74053 -16.04468,7.08186 -31.29784,8.96119 -13.16391,1.62191 -32.597456,2.43607 -47.487276,1.98946 z m 88.032916,-52.45251 -1.82259,-0.11978 -0.93897,-2.46177 c -2.66036,-6.97488 -6.07749,-13.26615 -9.89673,-18.22085 -3.02833,-3.92865 -5.1521,-6.09239 -10.06239,-10.25171 l -1.67097,-1.41542 h -10.47314 c -5.76023,0 -10.47314,-0.0583 -10.47314,-0.12963 0,-0.0713 0.49039,-0.92025 1.08975,-1.88655 0.59936,-0.9663 1.74471,-3.07964 2.54522,-4.69631 1.17684,-2.37668 1.72314,-3.2187 2.85361,-4.39836 1.55522,-1.62289 2.89417,-3.53746 3.99663,-5.71482 l 0.7323,-1.44629 6.20861,0.0575 c 8.58205,0.0795 9.05907,-0.0843 10.8944,-3.74095 0.71727,-1.429073 1.45788,-3.70644 2.04534,-6.289386 0.10156,-0.446526 -0.0532,-0.77317 -0.75372,-1.590971 -1.36346,-1.591718 -3.01705,-4.379163 -4.0211,-6.778341 -0.78733,-1.881351 -1.07618,-2.325939 -2.1075,-3.243836 -2.12263,-1.88918 -3.11509,-4.636567 -3.35907,-9.298774 l -0.13067,-2.496822 0.96419,-0.578562 0.9642,-0.57856 -0.16298,-1.330605 c -1.33004,-10.858904 1.09099,-18.997369 6.9152,-23.246015 2.91685,-2.127784 7.28014,-3.845277 11.73334,-4.618514 1.55681,-0.270317 3.29704,-0.378233 6.09929,-0.378233 8.84256,0 15.68204,2.423942 20.37984,7.222715 2.37907,2.430198 3.76864,5.260372 4.35544,8.870839 0.33726,2.075079 0.28215,7.976954 -0.10391,11.128543 -0.17809,1.45385 -0.30365,2.652106 -0.27902,2.662789 0.0246,0.01069 0.31435,0.183653 0.64382,0.384372 0.591,0.360054 0.59904,0.394493 0.59904,2.568755 0,4.810954 -1.38083,8.4663 -3.83439,10.150459 -0.62986,0.432344 -1.03338,0.907261 -1.19755,1.40944 -0.86884,2.6577 -2.473,5.503517 -4.57653,8.11888 l -1.48483,1.846132 0.43318,1.610559 c 0.98833,3.674573 2.0362,5.738596 3.58923,7.069846 1.81652,1.5571 2.08844,1.60079 10.48755,1.68473 l 7.44655,0.0744 1.44846,1.49525 c 3.85068,3.97507 6.73965,8.92871 8.8867,15.23778 2.06413,6.0654 3.4726,14.19276 3.81717,22.02641 l 0.144,3.2738 -0.75457,0.60556 c -4.8087,3.85915 -20.76361,6.85376 -38.85008,7.29185 -9.33642,0.22614 -10.5327,0.23784 -12.31921,0.12042 z M 136.90006,39.301123 c -1.85701,-0.494896 -9.38483,-2.464438 -16.72848,-4.376762 l -13.3521,-3.476953 6.21811,-3.029115 c 3.41996,-1.666012 6.21812,-3.113302 6.21812,-3.2162 0,-0.377439 -2.86143,-2.779467 -4.30804,-3.616388 -9.46612,-5.476512 -22.579596,-2.573076 -28.824306,6.381946 -0.70072,1.004853 -2.34443,4.036771 -2.63413,4.85882 -0.0647,0.183596 -7.09859,-0.106231 -7.29831,-0.300721 -0.17763,-0.172984 1.07631,-4.898261 1.94974,-7.347254 2.17105,-6.087408 5.19645,-10.859645 9.62703,-15.1855886 5.31597,-5.190418 11.18365,-8.257919 18.514646,-9.67907405 3.46359,-0.671437 9.24518,-0.673281 12.66288,-0.004 5.26914,1.03178605 9.99563,3.06233805 14.0558,6.03852905 1.98524,1.45523 5.63126,5.0852266 7.02165,6.9908056 l 1.03517,1.418727 6.14234,-2.962242 c 3.37829,-1.629233 6.16723,-2.8881386 6.19764,-2.7975686 0.0304,0.09057 -2.15588,5.4626076 -4.85841,11.9378596 -2.70252,6.475254 -5.61365,13.467572 -6.46917,15.538487 -0.85552,2.070914 -1.60911,3.756577 -1.67464,3.74592 -0.0655,-0.01066 -1.63852,-0.424293 -3.49554,-0.919189 z"
       id="path24" />
  </g>
</svg>
