<svg width="73" height="52" viewBox="0 0 73 52" fill="none" xmlns="http://www.w3.org/2000/svg">
    <path d="M70.2667 19.6089H70.3906C71.5556 19.6089 72.5 18.6739 72.5 17.5206V2.08835C72.5 0.935025 71.5556 0 70.3906 0H21.0255V52H70.3906C71.5556 52 72.5 51.065 72.5 49.9116V34.4794C72.5 33.3261 71.5556 32.3911 70.3906 32.3911H70.2667C67.7827 32.3911 65.7619 30.3903 65.7619 27.9312V24.0688C65.7618 21.6096 67.7827 19.6089 70.2667 19.6089ZM30.5753 28.5105H46.6011C47.766 28.5105 48.7105 29.4455 48.7105 30.5988C48.7105 31.7522 47.766 32.6872 46.6011 32.6872H30.5753C29.4104 32.6872 28.466 31.7522 28.466 30.5988C28.466 29.4455 29.4104 28.5105 30.5753 28.5105ZM28.466 21.4012C28.466 20.2478 29.4104 19.3128 30.5753 19.3128H46.6011C47.766 19.3128 48.7105 20.2478 48.7105 21.4012C48.7105 22.5545 47.766 23.4895 46.6011 23.4895H30.5753C29.4104 23.4895 28.466 22.5545 28.466 21.4012ZM30.5753 37.7083H50.862C52.027 37.7083 52.9714 38.6433 52.9714 39.7966C52.9714 40.95 52.027 41.885 50.862 41.885H30.5753C29.4104 41.885 28.466 40.95 28.466 39.7966C28.466 38.6433 29.4104 37.7083 30.5753 37.7083ZM30.5753 14.2917C29.4104 14.2917 28.466 13.3567 28.466 12.2034C28.466 11.05 29.4104 10.115 30.5753 10.115H54.0382C55.2031 10.115 56.1476 11.05 56.1476 12.2034C56.1476 13.3567 55.2031 14.2917 54.0382 14.2917H30.5753Z"
          fill="#000000"/>
    <path d="M16.8067 0H2.60938C1.44444 0 0.5 0.935025 0.5 2.08835V17.5206C0.5 18.6739 1.44444 19.6089 2.60938 19.6089C5.09337 19.6089 7.11416 21.6097 7.11416 24.0688V27.9312C7.11416 30.3904 5.09323 32.3911 2.60938 32.3911C1.44444 32.3911 0.5 33.3261 0.5 34.4794V49.9116C0.5 51.065 1.44444 52 2.60938 52H16.8067V0Z"
          fill="#000000"/>
</svg>
