<?xml version="1.0" encoding="UTF-8" standalone="no"?>
<svg
        xmlns:dc="http://purl.org/dc/elements/1.1/"
        xmlns:cc="http://creativecommons.org/ns#"
        xmlns:rdf="http://www.w3.org/1999/02/22-rdf-syntax-ns#"
        xmlns:svg="http://www.w3.org/2000/svg"
        xmlns="http://www.w3.org/2000/svg"
        xmlns:sodipodi="http://sodipodi.sourceforge.net/DTD/sodipodi-0.dtd"
        xmlns:inkscape="http://www.inkscape.org/namespaces/inkscape"
        xml:space="preserve"
        width="60px"
        height="60px"
        version="1.1"
        style="shape-rendering:geometricPrecision; text-rendering:geometricPrecision; image-rendering:optimizeQuality; fill-rule:evenodd; clip-rule:evenodd"
        viewBox="0 0 60 60"
        id="svg16"
        sodipodi:docname="ic_send_meter.svg"
        inkscape:version="1.0.1 (3bc2e813f5, 2020-09-07)" xmlns:xsi="http://www.w3.org/2001/XMLSchema-instance"
        xsi:schemaLocation="http://creativecommons.org/ns# "><metadata
   id="metadata20"><rdf:RDF><cc:Work
       rdf:about=""><dc:format>image/svg+xml</dc:format><dc:type
        rdf:resource="http://purl.org/dc/dcmitype/StillImage"/><dc:title></dc:title></cc:Work></rdf:RDF></metadata>
 <sodipodi:namedview
         pagecolor="#ffffff"
         bordercolor="#666666"
         borderopacity="1"
         objecttolerance="10"
         gridtolerance="10"
         guidetolerance="10"
         inkscape:pageopacity="0"
         inkscape:pageshadow="2"
         inkscape:window-width="750"
         inkscape:window-height="480"
         id="namedview18"
         showgrid="false"
         inkscape:zoom="3.4583333"
         inkscape:cx="46.572023"
         inkscape:cy="27.708924"
         inkscape:window-x="0"
         inkscape:window-y="0"
         inkscape:window-maximized="0"
         inkscape:current-layer="svg16"/>
 <g
         id="x0020_1">
  <metadata
          id="CorelCorpID_0Corel-Layer"/>
  <path
          style="fill:#000000"
          class="fil0"
          d="M53.85 1.72c5.4,-1.92 6.04,-1.16 5.02,4l-14.93 53.83 -14.49 -23.01 2.79 -6.49 -6.16 3.46 -26.08 -10.97 53.85 -20.82z"
          id="path7"/>
  <path
          style="fill:#000000"
          class="fil0"
          d="M11.64 48.67l9.15 -7.18c3.31,-2.88 5.06,-1.01 2.02,2.2l-7.75 8.37c-3.45,2.64 -6.39,-0.16 -3.42,-3.39z"
          id="path9"/>
  <path
          style="fill:#000000"
          class="fil0"
          d="M22.1 53.87l2.7 -5.15c2.11,-3.67 4.55,-2.04 3.09,2.14l-2.34 5.33c-2.06,3.82 -5.03,1.14 -3.45,-2.32z"
          id="path11"/>
  <path
          style="fill:#000000"
          class="fil0"
          d="M6.73 38.96l5.5 -1.87c4.06,-1.19 5.82,1.52 1.88,3.54l-5.37 2.25c-4.13,1.34 -5.54,-2.51 -2.01,-3.92z"
          id="path13"/>
 </g>
</svg>
